<svg viewBox="0 0 500 410" xmlns="http://www.w3.org/2000/svg" role="img" aria-label="Konno法の模式図" style="width:100%;height:auto;max-width:500px;display:block;margin:0 auto;border:1px solid #e3e3e3;border-radius:10px;background:#fff;font-family:'Noto Sans JP','Hiragino Sans',sans-serif;">
<text x="250" y="30" text-anchor="middle" font-size="17" font-weight="700" fill="#1f2933">Konno法（大動脈-心室形成 / 2パッチ）</text>
<path d="M 150 60 L 150 150 Q 150 190 200 195 L 300 195 Q 350 190 350 150 L 350 60" fill="#fbf4ef" stroke="#b45c5c" stroke-width="3"/>
<path d="M 135 60 L 135 150 Q 135 205 200 210 L 300 210 Q 365 205 365 150 L 365 60" fill="none" stroke="#b45c5c" stroke-width="3"/>
<line x1="150" y1="195" x2="350" y2="195" stroke="#1f2933" stroke-width="2" stroke-dasharray="4 3"/>
<path d="M 200 210 Q 175 320 250 360 Q 325 320 300 210" fill="#d98b8b" opacity="0.35" stroke="#b45c5c" stroke-width="2"/>
<text x="250" y="52" text-anchor="middle" font-size="12" fill="#5b6673">上行大動脈</text>
<text x="250" y="188" text-anchor="middle" font-size="11" font-weight="700" fill="#1f2933">大動脈弁輪</text>
<path d="M 305 70 L 305 205 L 300 300 L 285 345" stroke="#d9772f" stroke-width="3" fill="none" stroke-dasharray="6 4"/>
<path d="M 305 205 L 305 340 Q 320 355 335 330 L 335 205 Z" fill="#d9772f" opacity="0.20" stroke="#d9772f" stroke-width="2"/>
<path d="M 300 80 L 300 200 L 340 200 L 340 80 Z" fill="#d9772f" opacity="0.30" stroke="#d9772f" stroke-width="2"/>
<path d="M 340 90 Q 380 160 360 300 Q 345 320 340 300 L 340 90 Z" fill="#cbb285" opacity="0.18" stroke="#8a6" stroke-width="2"/>
<text x="392" y="150" text-anchor="start" font-size="11" font-weight="700" fill="#8a6b2a">RVOTパッチ</text>
<text x="392" y="166" text-anchor="start" font-size="11" fill="#5b6673">（右室流出路再建）</text>
<text x="360" y="255" text-anchor="start" font-size="12" font-weight="700" fill="#d9772f">中隔パッチ</text>
<text x="120" y="150" text-anchor="start" font-size="11" fill="#5b6673">僧帽弁側</text>
<text x="250" y="392" text-anchor="middle" font-size="11" fill="#5b6673">原径の約2倍まで拡大可・房室ブロック/伝導障害・高侵襲（先天性超狭小弁輪向け）</text>
</svg>
